<mxfile host="app.diagrams.net" modified="2023-09-27T22:02:13.492Z" agent="Mozilla/5.0 (Windows NT 6.1; Win64; x64) AppleWebKit/537.36 (KHTML, like Gecko) Chrome/102.0.0.0 Safari/537.36" etag="AkAC1KMLuHEGrt8sKOBq" version="21.8.2" type="github">
  <diagram name="Página-1" id="UW1VlqwGxSZPQ3qC3E5H">
    <mxGraphModel dx="1703" dy="484" grid="1" gridSize="10" guides="1" tooltips="1" connect="1" arrows="1" fold="1" page="1" pageScale="1" pageWidth="827" pageHeight="1169" math="0" shadow="0">
      <root>
        <mxCell id="0" />
        <mxCell id="1" parent="0" />
        <mxCell id="suR3gG4t6Wf_RWEi5Wpu-1" value="" style="whiteSpace=wrap;html=1;aspect=fixed;" vertex="1" parent="1">
          <mxGeometry x="-120" y="380" width="120" height="120" as="geometry" />
        </mxCell>
        <mxCell id="suR3gG4t6Wf_RWEi5Wpu-32" style="edgeStyle=orthogonalEdgeStyle;rounded=0;orthogonalLoop=1;jettySize=auto;html=1;exitX=1;exitY=0.5;exitDx=0;exitDy=0;entryX=0;entryY=0.5;entryDx=0;entryDy=0;" edge="1" parent="1" source="suR3gG4t6Wf_RWEi5Wpu-4" target="suR3gG4t6Wf_RWEi5Wpu-14">
          <mxGeometry relative="1" as="geometry" />
        </mxCell>
        <mxCell id="suR3gG4t6Wf_RWEi5Wpu-4" value="" style="whiteSpace=wrap;html=1;aspect=fixed;" vertex="1" parent="1">
          <mxGeometry x="50" y="560" width="130" height="130" as="geometry" />
        </mxCell>
        <mxCell id="suR3gG4t6Wf_RWEi5Wpu-5" value="Usuario" style="rounded=0;whiteSpace=wrap;html=1;" vertex="1" parent="1">
          <mxGeometry x="75" y="530" width="80" height="20" as="geometry" />
        </mxCell>
        <mxCell id="suR3gG4t6Wf_RWEi5Wpu-6" value="Login" style="rounded=0;whiteSpace=wrap;html=1;" vertex="1" parent="1">
          <mxGeometry x="-95" y="425" width="70" height="30" as="geometry" />
        </mxCell>
        <mxCell id="suR3gG4t6Wf_RWEi5Wpu-9" value="Auto 1" style="rounded=0;whiteSpace=wrap;html=1;" vertex="1" parent="1">
          <mxGeometry x="75" y="580" width="80" height="20" as="geometry" />
        </mxCell>
        <mxCell id="suR3gG4t6Wf_RWEi5Wpu-11" value="Auto 2" style="rounded=0;whiteSpace=wrap;html=1;" vertex="1" parent="1">
          <mxGeometry x="75" y="610" width="80" height="20" as="geometry" />
        </mxCell>
        <mxCell id="suR3gG4t6Wf_RWEi5Wpu-12" value="..." style="rounded=0;whiteSpace=wrap;html=1;" vertex="1" parent="1">
          <mxGeometry x="75" y="640" width="80" height="20" as="geometry" />
        </mxCell>
        <mxCell id="suR3gG4t6Wf_RWEi5Wpu-14" value="" style="whiteSpace=wrap;html=1;aspect=fixed;" vertex="1" parent="1">
          <mxGeometry x="230" y="555" width="130" height="130" as="geometry" />
        </mxCell>
        <mxCell id="suR3gG4t6Wf_RWEi5Wpu-15" value="Informe 1" style="rounded=0;whiteSpace=wrap;html=1;" vertex="1" parent="1">
          <mxGeometry x="255" y="580" width="80" height="20" as="geometry" />
        </mxCell>
        <mxCell id="suR3gG4t6Wf_RWEi5Wpu-16" value="Informe 2" style="rounded=0;whiteSpace=wrap;html=1;" vertex="1" parent="1">
          <mxGeometry x="255" y="610" width="80" height="20" as="geometry" />
        </mxCell>
        <mxCell id="suR3gG4t6Wf_RWEi5Wpu-17" value="..." style="rounded=0;whiteSpace=wrap;html=1;" vertex="1" parent="1">
          <mxGeometry x="255" y="640" width="80" height="20" as="geometry" />
        </mxCell>
        <mxCell id="suR3gG4t6Wf_RWEi5Wpu-18" value="" style="whiteSpace=wrap;html=1;aspect=fixed;" vertex="1" parent="1">
          <mxGeometry x="120" y="290" width="170" height="170" as="geometry" />
        </mxCell>
        <mxCell id="suR3gG4t6Wf_RWEi5Wpu-42" style="edgeStyle=orthogonalEdgeStyle;rounded=0;orthogonalLoop=1;jettySize=auto;html=1;exitX=1;exitY=0.5;exitDx=0;exitDy=0;entryX=0;entryY=0.5;entryDx=0;entryDy=0;" edge="1" parent="1" source="suR3gG4t6Wf_RWEi5Wpu-19" target="suR3gG4t6Wf_RWEi5Wpu-33">
          <mxGeometry relative="1" as="geometry" />
        </mxCell>
        <mxCell id="suR3gG4t6Wf_RWEi5Wpu-19" value="Añadir usuario" style="rounded=0;whiteSpace=wrap;html=1;" vertex="1" parent="1">
          <mxGeometry x="158.76" y="300" width="92.5" height="20" as="geometry" />
        </mxCell>
        <mxCell id="suR3gG4t6Wf_RWEi5Wpu-46" style="edgeStyle=orthogonalEdgeStyle;rounded=0;orthogonalLoop=1;jettySize=auto;html=1;exitX=1;exitY=0.5;exitDx=0;exitDy=0;" edge="1" parent="1" source="suR3gG4t6Wf_RWEi5Wpu-22" target="suR3gG4t6Wf_RWEi5Wpu-45">
          <mxGeometry relative="1" as="geometry" />
        </mxCell>
        <mxCell id="suR3gG4t6Wf_RWEi5Wpu-22" value="Listado usuarios" style="rounded=0;whiteSpace=wrap;html=1;" vertex="1" parent="1">
          <mxGeometry x="158.76" y="330" width="92.5" height="20" as="geometry" />
        </mxCell>
        <mxCell id="suR3gG4t6Wf_RWEi5Wpu-23" value="Gestión de usuarios" style="rounded=0;whiteSpace=wrap;html=1;" vertex="1" parent="1">
          <mxGeometry x="131.25" y="360" width="147.5" height="20" as="geometry" />
        </mxCell>
        <mxCell id="suR3gG4t6Wf_RWEi5Wpu-24" value="Gestión de claves" style="rounded=0;whiteSpace=wrap;html=1;" vertex="1" parent="1">
          <mxGeometry x="149.38" y="420" width="111.25" height="20" as="geometry" />
        </mxCell>
        <mxCell id="suR3gG4t6Wf_RWEi5Wpu-27" value="Eliminar usuario" style="rounded=0;whiteSpace=wrap;html=1;" vertex="1" parent="1">
          <mxGeometry x="152" y="390" width="118" height="20" as="geometry" />
        </mxCell>
        <mxCell id="suR3gG4t6Wf_RWEi5Wpu-28" value="Mecanico" style="rounded=0;whiteSpace=wrap;html=1;" vertex="1" parent="1">
          <mxGeometry x="165" y="260" width="80" height="20" as="geometry" />
        </mxCell>
        <mxCell id="suR3gG4t6Wf_RWEi5Wpu-30" style="edgeStyle=orthogonalEdgeStyle;rounded=0;orthogonalLoop=1;jettySize=auto;html=1;exitX=1;exitY=0.5;exitDx=0;exitDy=0;entryX=0.018;entryY=0.465;entryDx=0;entryDy=0;entryPerimeter=0;" edge="1" parent="1" source="suR3gG4t6Wf_RWEi5Wpu-1" target="suR3gG4t6Wf_RWEi5Wpu-18">
          <mxGeometry relative="1" as="geometry" />
        </mxCell>
        <mxCell id="suR3gG4t6Wf_RWEi5Wpu-31" style="edgeStyle=orthogonalEdgeStyle;rounded=0;orthogonalLoop=1;jettySize=auto;html=1;exitX=1;exitY=0.5;exitDx=0;exitDy=0;entryX=0.008;entryY=0.615;entryDx=0;entryDy=0;entryPerimeter=0;" edge="1" parent="1" source="suR3gG4t6Wf_RWEi5Wpu-1" target="suR3gG4t6Wf_RWEi5Wpu-4">
          <mxGeometry relative="1" as="geometry" />
        </mxCell>
        <mxCell id="suR3gG4t6Wf_RWEi5Wpu-33" value="" style="whiteSpace=wrap;html=1;aspect=fixed;" vertex="1" parent="1">
          <mxGeometry x="550" y="20" width="230" height="230" as="geometry" />
        </mxCell>
        <mxCell id="suR3gG4t6Wf_RWEi5Wpu-34" value="Nro-teléfono" style="rounded=0;whiteSpace=wrap;html=1;" vertex="1" parent="1">
          <mxGeometry x="617.5" y="32.5" width="95" height="20" as="geometry" />
        </mxCell>
        <mxCell id="suR3gG4t6Wf_RWEi5Wpu-35" value="Email" style="rounded=0;whiteSpace=wrap;html=1;" vertex="1" parent="1">
          <mxGeometry x="617.5" y="62.5" width="95" height="20" as="geometry" />
        </mxCell>
        <mxCell id="suR3gG4t6Wf_RWEi5Wpu-36" value="Nombre / Apellido" style="rounded=0;whiteSpace=wrap;html=1;" vertex="1" parent="1">
          <mxGeometry x="608.75" y="92.5" width="112.5" height="20" as="geometry" />
        </mxCell>
        <mxCell id="suR3gG4t6Wf_RWEi5Wpu-37" value="DNI" style="rounded=0;whiteSpace=wrap;html=1;" vertex="1" parent="1">
          <mxGeometry x="617.5" y="122.5" width="95" height="20" as="geometry" />
        </mxCell>
        <mxCell id="suR3gG4t6Wf_RWEi5Wpu-38" value="Patente" style="rounded=0;whiteSpace=wrap;html=1;" vertex="1" parent="1">
          <mxGeometry x="617.5" y="152.5" width="95" height="20" as="geometry" />
        </mxCell>
        <mxCell id="suR3gG4t6Wf_RWEi5Wpu-39" value="Modelo del auto" style="rounded=0;whiteSpace=wrap;html=1;" vertex="1" parent="1">
          <mxGeometry x="617.5" y="187.5" width="95" height="20" as="geometry" />
        </mxCell>
        <mxCell id="suR3gG4t6Wf_RWEi5Wpu-40" value="Año" style="rounded=0;whiteSpace=wrap;html=1;" vertex="1" parent="1">
          <mxGeometry x="617.5" y="217.5" width="95" height="20" as="geometry" />
        </mxCell>
        <mxCell id="suR3gG4t6Wf_RWEi5Wpu-45" value="Hacer clic en un usuario o en un cuadro de búsqueda" style="rounded=0;whiteSpace=wrap;html=1;" vertex="1" parent="1">
          <mxGeometry x="414" y="320" width="120" height="60" as="geometry" />
        </mxCell>
      </root>
    </mxGraphModel>
  </diagram>
</mxfile>
